<?xml version="1.0" standalone="no"?>
<!DOCTYPE svg PUBLIC "-//W3C//DTD SVG 20010904//EN"
 "http://www.w3.org/TR/2001/REC-SVG-20010904/DTD/svg10.dtd">
<svg version="1.0" xmlns="http://www.w3.org/2000/svg"
 width="300.000000pt" height="300.000000pt" viewBox="0 0 300.000000 300.000000"
 preserveAspectRatio="xMidYMid meet">
<metadata>
Created by potrace 1.14, written by Peter Selinger 2001-2017
</metadata>
<g transform="translate(0.000000,300.000000) scale(0.100000,-0.100000)"
fill="#000000" stroke="none">
<path d="M1408 2985 c-2 -1 -35 -5 -74 -8 -39 -4 -77 -9 -85 -11 -8 -3 -30 -7
-49 -10 -94 -14 -284 -80 -385 -134 -197 -105 -352 -232 -487 -401 -178 -222
-282 -471 -317 -761 -12 -98 -4 -372 13 -427 3 -10 7 -30 10 -44 16 -94 71
-250 128 -364 226 -447 667 -754 1168 -812 69 -8 290 -8 350 0 137 19 244 47
363 93 124 48 307 148 363 199 7 5 31 26 55 45 173 139 342 370 429 588 79
197 109 368 104 592 -4 167 -5 183 -35 309 -123 516 -525 938 -1034 1086 -135
39 -246 56 -387 60 -70 1 -128 2 -130 0z"/>
</g>
</svg>
